<svg width="134" height="53" viewBox="0 0 134 53" fill="none" xmlns="http://www.w3.org/2000/svg">
<rect x="1" y="1" width="132" height="51" stroke="#FFFDFD" stroke-width="2"/>
<path d="M22.7332 29.7212L19.7092 22.2137C19.6042 21.9687 19.5027 21.6747 19.4047 21.3317C19.3627 21.4997 19.3172 21.6607 19.2682 21.8147C19.2192 21.9617 19.1667 22.0982 19.1107 22.2242L16.0867 29.7212H22.7332ZM26.0197 35.1182H25.1902C25.0922 35.1182 25.0117 35.0937 24.9487 35.0447C24.8857 34.9887 24.8367 34.9187 24.8017 34.8347L23.0587 30.5192H15.7612L14.0182 34.8347C13.9902 34.9117 13.9412 34.9782 13.8712 35.0342C13.8012 35.0902 13.7172 35.1182 13.6192 35.1182H12.8002L18.8797 20.2607H19.9402L26.0197 35.1182ZM37.9114 34.2572C39.2134 34.2572 40.1969 33.9772 40.8619 33.4172C41.5339 32.8502 41.8699 32.0557 41.8699 31.0337C41.8699 30.5647 41.7789 30.1447 41.5969 29.7737C41.4219 29.3957 41.1664 29.0772 40.8304 28.8182C40.4944 28.5522 40.0814 28.3492 39.5914 28.2092C39.1014 28.0692 38.5449 27.9992 37.9219 27.9992H34.1839V34.2572H37.9114ZM34.1839 21.1112V27.2117H37.3969C38.0829 27.2117 38.6674 27.1242 39.1504 26.9492C39.6404 26.7742 40.0394 26.5432 40.3474 26.2562C40.6624 25.9692 40.8934 25.6437 41.0404 25.2797C41.1874 24.9157 41.2609 24.5412 41.2609 24.1562C41.2609 23.1552 40.9424 22.3992 40.3054 21.8882C39.6754 21.3702 38.6989 21.1112 37.3759 21.1112H34.1839ZM37.3759 20.2607C38.2229 20.2607 38.9579 20.3447 39.5809 20.5127C40.2039 20.6807 40.7184 20.9292 41.1244 21.2582C41.5304 21.5802 41.8314 21.9757 42.0274 22.4447C42.2234 22.9137 42.3214 23.4457 42.3214 24.0407C42.3214 24.4327 42.2514 24.8107 42.1114 25.1747C41.9784 25.5387 41.7824 25.8747 41.5234 26.1827C41.2714 26.4907 40.9564 26.7602 40.5784 26.9912C40.2074 27.2152 39.7804 27.3867 39.2974 27.5057C40.4664 27.6737 41.3624 28.0622 41.9854 28.6712C42.6154 29.2732 42.9304 30.0677 42.9304 31.0547C42.9304 31.6847 42.8184 32.2517 42.5944 32.7557C42.3704 33.2597 42.0449 33.6867 41.6179 34.0367C41.1909 34.3867 40.6659 34.6562 40.0429 34.8452C39.4199 35.0272 38.7129 35.1182 37.9219 35.1182H33.1024V20.2607H37.3759ZM58.8179 29.7212L55.7939 22.2137C55.6889 21.9687 55.5874 21.6747 55.4894 21.3317C55.4474 21.4997 55.4019 21.6607 55.3529 21.8147C55.3039 21.9617 55.2514 22.0982 55.1954 22.2242L52.1714 29.7212H58.8179ZM62.1044 35.1182H61.2749C61.1769 35.1182 61.0964 35.0937 61.0334 35.0447C60.9704 34.9887 60.9214 34.9187 60.8864 34.8347L59.1434 30.5192H51.8459L50.1029 34.8347C50.0749 34.9117 50.0259 34.9782 49.9559 35.0342C49.8859 35.0902 49.8019 35.1182 49.7039 35.1182H48.8849L54.9644 20.2607H56.0249L62.1044 35.1182ZM80.6531 20.2607V35.1182H80.1491C80.0581 35.1182 79.9811 35.1042 79.9181 35.0762C79.8621 35.0412 79.8061 34.9852 79.7501 34.9082L70.1006 22.0142C70.1216 22.2242 70.1321 22.4237 70.1321 22.6127V35.1182H69.1871V20.2607H69.7226C69.8206 20.2607 69.8941 20.2747 69.9431 20.3027C69.9991 20.3237 70.0586 20.3762 70.1216 20.4602L79.7501 33.3227C79.7291 33.1127 79.7186 32.9132 79.7186 32.7242V20.2607H80.6531ZM102.176 27.6842C102.176 28.8322 102.004 29.8647 101.661 30.7817C101.318 31.6987 100.835 32.4792 100.212 33.1232C99.5892 33.7672 98.8402 34.2607 97.9652 34.6037C97.0972 34.9467 96.1382 35.1182 95.0882 35.1182H89.6597V20.2607H95.0882C96.1382 20.2607 97.0972 20.4322 97.9652 20.7752C98.8402 21.1182 99.5892 21.6117 100.212 22.2557C100.835 22.8997 101.318 23.6802 101.661 24.5972C102.004 25.5142 102.176 26.5432 102.176 27.6842ZM101.063 27.6842C101.063 26.6482 100.919 25.7242 100.632 24.9122C100.345 24.1002 99.9392 23.4142 99.4142 22.8542C98.8892 22.2942 98.2592 21.8672 97.5242 21.5732C96.7892 21.2792 95.9772 21.1322 95.0882 21.1322H90.7412V34.2467H95.0882C95.9772 34.2467 96.7892 34.0997 97.5242 33.8057C98.2592 33.5117 98.8892 33.0847 99.4142 32.5247C99.9392 31.9647 100.345 31.2787 100.632 30.4667C100.919 29.6547 101.063 28.7272 101.063 27.6842ZM117.918 29.7212L114.894 22.2137C114.789 21.9687 114.688 21.6747 114.59 21.3317C114.548 21.4997 114.502 21.6607 114.453 21.8147C114.404 21.9617 114.352 22.0982 114.296 22.2242L111.272 29.7212H117.918ZM121.205 35.1182H120.375C120.277 35.1182 120.197 35.0937 120.134 35.0447C120.071 34.9887 120.022 34.9187 119.987 34.8347L118.244 30.5192H110.946L109.203 34.8347C109.175 34.9117 109.126 34.9782 109.056 35.0342C108.986 35.0902 108.902 35.1182 108.804 35.1182H107.985L114.065 20.2607H115.125L121.205 35.1182Z" fill="#FFFAFA"/>
</svg>
